<svg width="56" height="56" viewBox="0 0 56 56" fill="none" xmlns="http://www.w3.org/2000/svg">
<path d="M55.4012 26.6092C55.0974 26.4833 54.7479 26.5529 54.5153 26.7853L52.0809 29.2198V12.6675C52.0809 12.2185 51.7169 11.8547 51.2681 11.8547H45.0226L47.2897 9.58759C47.2901 9.58727 47.2904 9.58684 47.2907 9.58651L49.4752 7.40206C49.9432 6.93404 50.2009 6.31146 50.2009 5.6495C50.2009 4.98755 49.9432 4.36518 49.4752 3.89694L46.9491 1.37091C46.4811 0.902893 45.8585 0.645142 45.1966 0.645142C44.5346 0.645142 43.9121 0.902893 43.444 1.37091L41.2585 3.55645L38.6176 6.19734L32.9604 11.8546H7.72947V3.81322C7.72947 3.36424 7.36551 3.00038 6.91663 3.00038C3.39161 3.0006 0.523682 5.86831 0.523682 9.39355V43.9175C0.523682 43.9776 0.530604 44.036 0.542935 44.0922C0.655207 45.588 1.30234 46.9778 2.38386 48.0328C3.5399 49.1603 5.06597 49.7812 6.68105 49.7812H31.5193L26.8414 54.4592C26.6089 54.6917 26.5394 55.0412 26.6652 55.345C26.791 55.6487 27.0874 55.8468 27.4162 55.8468H55.0901C55.539 55.8468 55.9029 55.4829 55.9029 55.0339V27.3602C55.9029 27.0315 55.7048 26.735 55.4012 26.6092ZM44.5938 2.52057C44.9261 2.18808 45.4674 2.18808 45.7997 2.52057L48.3258 5.04671C48.6583 5.37909 48.6583 5.92023 48.3258 6.25272L46.7152 7.86348L42.9829 4.13133L44.5938 2.52057ZM41.8334 5.28088L45.5655 9.01293L44.0741 10.5044L40.3421 6.77234L41.8334 5.28088ZM54.2775 36.4937H52.7778C52.3288 36.4937 51.965 36.8575 51.965 37.3065C51.965 37.7555 52.3288 38.1194 52.7778 38.1194H54.2775V40.5688H52.7778C52.3288 40.5688 51.965 40.9327 51.965 41.3817C51.965 41.8306 52.3288 42.1945 52.7778 42.1945H54.2775V44.6438H52.7778C52.3288 44.6438 51.965 45.0077 51.965 45.4567C51.965 45.9057 52.3288 46.2695 52.7778 46.2695H54.2775V48.719H52.7778C52.3288 48.719 51.965 49.083 51.965 49.5318C51.965 49.9808 52.3288 50.3447 52.7778 50.3447H54.2775V54.2214H29.3784L37.5888 46.0111C37.9063 45.6936 37.9063 45.179 37.5888 44.8616C37.5524 44.8251 37.5132 44.7935 37.4722 44.7654C37.1558 44.5487 36.7203 44.5806 36.4392 44.8616L33.145 48.1558H6.68116C4.21592 48.1558 2.23135 46.2311 2.15326 43.7703C2.15791 43.6159 2.16992 43.4627 2.18917 43.3113C2.18928 43.3104 2.18939 43.3096 2.18949 43.3087C2.19858 43.2368 2.2095 43.1652 2.22194 43.094C2.22335 43.0859 2.22486 43.0778 2.22627 43.0697C2.23763 43.0062 2.25039 42.943 2.26434 42.88C2.26824 42.8625 2.27235 42.845 2.27646 42.8276C2.28879 42.7744 2.30209 42.7215 2.31637 42.6688C2.32416 42.6402 2.33227 42.612 2.3406 42.5836C2.35249 42.5422 2.36483 42.501 2.37791 42.4603C2.391 42.4195 2.40495 42.3791 2.41912 42.3388C2.42897 42.3106 2.4387 42.2823 2.4493 42.2543C2.46909 42.2011 2.49008 42.1484 2.51171 42.0962C2.51788 42.0812 2.52393 42.0659 2.53031 42.0509C2.55811 41.986 2.58699 41.9218 2.61749 41.8584C2.61879 41.8557 2.61998 41.853 2.62128 41.8503C3.25706 40.5346 4.47984 39.5537 5.94728 39.2493C5.95139 39.2485 5.9555 39.2475 5.95961 39.2466C6.02689 39.2329 6.09481 39.2211 6.16317 39.2102C6.17453 39.2084 6.18589 39.2061 6.19746 39.2043C6.25922 39.1949 6.32163 39.1876 6.38404 39.1806C6.40156 39.1786 6.41898 39.1759 6.43661 39.1742C6.49685 39.1681 6.55764 39.1641 6.61843 39.1603C6.63768 39.1591 6.65693 39.1571 6.67619 39.1561C6.75579 39.1521 6.83605 39.1501 6.91663 39.1501C7.36551 39.1501 7.72947 38.7862 7.72947 38.3372V32.4435C7.72947 31.9946 7.36551 31.6307 6.91663 31.6307C6.46776 31.6307 6.10379 31.9946 6.10379 32.4435V37.5755C4.73121 37.7491 3.45716 38.3613 2.45255 39.3424C2.34687 39.4456 2.24671 39.5529 2.14915 39.6619V9.39355C2.14915 7.04199 3.86093 5.0824 6.10368 4.6954V12.6675V29.1923V29.1924C6.10368 29.6413 6.46765 30.0052 6.91652 30.0052C7.3654 30.0052 7.72937 29.6413 7.72937 29.1924V29.1923V13.4804H31.3348L26.8413 17.9739C26.5238 18.2914 26.5238 18.806 26.8413 19.1234C27.1587 19.4408 27.6734 19.4408 27.9907 19.1234L33.8718 13.2423C33.8721 13.2421 33.8722 13.2419 33.8724 13.2418L39.1924 7.92178L42.9243 11.6539L42.4864 12.0918C42.4861 12.0921 42.4857 12.0924 42.4854 12.0927L26.0957 28.4826L22.3637 24.7506L25.5943 21.52C25.9117 21.2024 25.9117 20.6879 25.5943 20.3704C25.2768 20.0531 24.7622 20.0531 24.4448 20.3704L20.6393 24.1758C20.619 24.1961 20.6 24.2177 20.5821 24.2397C20.5762 24.2471 20.5709 24.255 20.5652 24.2627C20.5538 24.2779 20.5425 24.2933 20.532 24.3093C20.5261 24.3186 20.5207 24.3281 20.5151 24.3377C20.5061 24.3529 20.4974 24.3682 20.4895 24.3839C20.4843 24.3941 20.4797 24.4044 20.4749 24.415C20.4677 24.4309 20.461 24.4471 20.4548 24.4633C20.4526 24.469 20.4498 24.4744 20.4478 24.4802L18.8642 28.9662L17.7845 32.025C17.7702 32.0656 17.7599 32.1069 17.7523 32.1486H15.0491C14.6002 32.1486 14.2362 32.5124 14.2362 32.9614C14.2362 33.4104 14.6002 33.7743 15.0491 33.7743H37.5592C38.0082 33.7743 38.372 33.4104 38.372 32.9614C38.372 32.5124 38.0082 32.1486 37.5592 32.1486H21.4091L26.3662 30.3987C26.3703 30.3972 26.3742 30.3952 26.3783 30.3936C26.3976 30.3865 26.4165 30.3785 26.4352 30.37C26.4427 30.3665 26.4501 30.3632 26.4574 30.3597C26.4769 30.3499 26.496 30.3392 26.5148 30.3278C26.5209 30.3241 26.5272 30.3207 26.5331 30.317C26.5527 30.3044 26.5717 30.2907 26.5904 30.2762C26.5951 30.2726 26.6 30.2695 26.6045 30.2658C26.6271 30.2476 26.6493 30.228 26.6703 30.2071L43.397 13.4805H50.4551V30.8455L38.8281 42.4727C38.5106 42.7903 38.5106 43.3048 38.8281 43.6223C38.8479 43.642 38.8685 43.6607 38.8898 43.6781C39.0389 43.7995 39.2209 43.8603 39.4028 43.8603C39.5848 43.8603 39.7669 43.7995 39.9159 43.6781C39.9372 43.6608 39.9578 43.642 39.9776 43.6223C39.9779 43.6219 39.9776 43.6223 39.9779 43.6219L54.2775 29.3223V36.4937ZM24.609 29.2948L22.2807 30.1167L20.7294 28.5655L21.5514 26.2372L24.609 29.2948Z" fill="#B2B2B2"/>
<path d="M48.8477 40.1151C48.544 39.9892 48.1944 40.0587 47.9618 40.2912L39.0789 49.1741C38.8464 49.4067 38.7769 49.7562 38.9028 50.06C39.0285 50.3638 39.325 50.5617 39.6538 50.5617H48.5367C48.9857 50.5617 49.3496 50.1979 49.3496 49.7489V40.8659C49.3495 40.5372 49.1514 40.2409 48.8477 40.1151ZM41.6158 48.9362L47.7237 42.8283V48.9362H41.6158Z" fill="#B2B2B2"/>
</svg>
