<svg width="51" height="51" viewBox="0 0 51 51" fill="none" xmlns="http://www.w3.org/2000/svg">
<path d="M5.02338 50.5806H39.3959C42.1828 50.5806 44.433 48.3304 44.433 45.5435C44.433 45.0893 44.0614 44.6971 43.5866 44.6971C43.1324 44.6971 42.7402 45.0686 42.7402 45.5435C42.7402 47.4014 41.2332 48.8878 39.3959 48.8878H5.02338C3.16541 48.8878 1.67903 47.3808 1.67903 45.5435V42.1785C1.67903 40.3205 3.18605 38.8341 5.02338 38.8341C6.86071 38.8341 8.36773 40.3411 8.36773 42.1785C8.36773 42.6326 8.73932 43.0249 9.21414 43.0249C9.66831 43.0249 10.0605 42.6533 10.0605 42.1785V11.9968H12.5791V31.0719C12.5791 31.1752 12.5998 31.2784 12.6411 31.3816L15.2216 37.7813C15.4693 38.4212 16.0886 38.8341 16.7699 38.8341H19.2885C19.7426 38.8341 20.1349 38.4625 20.1349 37.9877C20.1349 37.5335 19.7633 37.1413 19.2885 37.1413H18.5866L20.9194 31.3816C20.9606 31.2784 20.9813 31.1752 20.9813 31.0719V4.441C20.9813 2.12886 19.1027 0.250244 16.7905 0.250244C14.4784 0.250244 12.5998 2.12886 12.5998 4.441V10.3246H10.0812V8.65241C10.0812 5.86545 7.83098 3.61524 5.04403 3.61524C2.25707 3.61524 0.00685479 5.86545 0.00685479 8.65241V45.5435C-0.0137893 48.3098 2.23642 50.56 5.02338 50.5806ZM19.2678 29.3791C18.7517 29.0901 18.1737 28.9043 17.5957 28.8217V14.5153C17.5957 14.0612 17.2241 13.6689 16.7492 13.6689C16.2951 13.6689 15.9028 14.0405 15.9028 14.5153V28.8217C15.3042 28.9043 14.7468 29.0901 14.2307 29.3791V8.65241H19.2678V29.3791ZM16.7492 37.1619L14.3958 31.3403C15.0151 30.721 15.8615 30.4113 16.7492 30.4526C17.6163 30.4113 18.4833 30.721 19.1027 31.3403L16.7492 37.1619ZM16.7492 1.94307C18.1324 1.94307 19.2472 3.05785 19.2678 4.441V6.98023H14.2307V4.441C14.2513 3.05785 15.3661 1.94307 16.7492 1.94307ZM5.02338 5.28741C6.88135 5.28741 8.36773 6.79443 8.36773 8.63176V38.4212C6.46847 36.7078 3.55764 36.7078 1.65838 38.4212V8.65241C1.65838 6.79444 3.16541 5.28741 5.02338 5.28741Z" fill="#B2B2B2"/>
<path d="M22.6122 11.8523V13.8342C22.6122 14.6393 23.1696 15.3205 23.9541 15.4857L25.5437 15.7954L24.6353 17.1372C24.2018 17.7978 24.2844 18.6855 24.8418 19.2636L26.2456 20.6674C26.8029 21.2248 27.6906 21.3073 28.3513 20.8738L29.6931 19.9861L30.0028 21.5757C30.1679 22.3602 30.8492 22.9176 31.6543 22.9176H33.6362C34.4413 22.9176 35.1225 22.3602 35.2877 21.5757L35.5973 19.9861L36.9392 20.8738C37.5998 21.3073 38.4875 21.2248 39.0656 20.6674L40.4694 19.2636C41.0267 18.7062 41.13 17.8185 40.6758 17.1579L39.7881 15.816L41.3777 15.5063C42.1622 15.3412 42.7196 14.6599 42.7196 13.8548V11.873C42.7196 11.0678 42.1622 10.3866 41.3777 10.2214L39.7881 9.91178L40.6758 8.56991C41.1093 7.90929 41.0267 7.0216 40.4694 6.44356L39.0656 5.03976C38.5082 4.48237 37.6205 4.37915 36.9599 4.83332L35.618 5.72102L35.3083 4.13142C35.1432 3.34694 34.4619 2.78955 33.6568 2.78955H31.675C30.8698 2.78955 30.1886 3.34694 30.0234 4.13142L29.7138 5.72102L28.3719 4.83332C27.7113 4.39979 26.8236 4.48237 26.2662 5.03976L24.8624 6.44356C24.305 7.00095 24.2018 7.88865 24.656 8.54926L25.5437 9.89113L23.9541 10.2008C23.1902 10.3659 22.6122 11.0472 22.6122 11.8523ZM24.305 11.8523L25.8946 11.5427C26.452 11.4394 26.9062 11.0472 27.1126 10.5311C27.319 10.015 27.2778 9.41632 26.9681 8.96215L26.0598 7.62028L27.4636 6.21648L28.8054 7.12482C29.2802 7.43448 29.8583 7.49641 30.3744 7.26933C30.8905 7.06288 31.2621 6.58807 31.3859 6.05132L31.6956 4.46173H33.6774L33.9871 6.05132C34.0903 6.60872 34.4826 7.06288 34.9987 7.26933C35.5148 7.47577 36.1134 7.43448 36.5676 7.12482L37.9095 6.21648L39.3133 7.62028L38.4049 8.96215C38.0953 9.43696 38.0333 10.015 38.2604 10.5311C38.4669 11.0472 38.9417 11.4188 39.4784 11.5427L41.068 11.8523V13.8342L39.4784 14.1438C38.921 14.247 38.4669 14.6393 38.2604 15.1554C38.054 15.6715 38.0953 16.2702 38.4049 16.7243L39.3133 18.0662L37.9095 19.47L36.5676 18.5617C36.0928 18.252 35.5148 18.1901 34.9987 18.4172C34.4826 18.6236 34.111 19.0984 33.9871 19.6352L33.6774 21.2248H31.6956L31.3859 19.6352C31.2827 19.0778 30.8905 18.6236 30.3744 18.4172C29.8583 18.2107 29.2596 18.252 28.8054 18.5617L27.4636 19.47L26.0598 18.0662L26.9681 16.7243C27.2778 16.2495 27.3397 15.6715 27.1126 15.1554C26.9062 14.6393 26.4314 14.2677 25.8946 14.1438L24.305 13.8342V11.8523Z" fill="#B2B2B2"/>
<path d="M32.6865 17.8804C35.4735 17.8804 37.7237 15.6302 37.7237 12.8432C37.7237 10.0562 35.4735 7.80603 32.6865 7.80603C29.8996 7.80603 27.6494 10.0562 27.6494 12.8432C27.6494 15.6095 29.8996 17.8597 32.6865 17.8804ZM32.6865 9.47821C34.5445 9.47821 36.0309 10.9852 36.0309 12.8226C36.0309 14.6805 34.5238 16.1669 32.6865 16.1669C30.8492 16.1669 29.3422 14.6599 29.3422 12.8226C29.3215 10.9852 30.8285 9.47821 32.6865 9.47821Z" fill="#B2B2B2"/>
<path d="M48.9334 31.1752L47.3438 30.8655L48.2315 29.5236C48.6651 28.863 48.5825 27.9753 48.0251 27.4179L46.6213 26.0141C46.0639 25.4567 45.1762 25.3535 44.5156 25.8077L43.1737 26.6954L42.8641 25.1058C42.6989 24.3213 42.0177 23.7639 41.2125 23.7639H39.2307C38.4256 23.7639 37.7443 24.3213 37.5792 25.1058L37.2695 26.6954L35.9276 25.8077C35.267 25.3742 34.3793 25.4567 33.8013 26.0141L32.3975 27.4179C31.8401 27.9753 31.7575 28.863 32.1911 29.5236L33.0787 30.8655L31.4891 31.1752C30.7047 31.3403 30.1473 32.0216 30.1473 32.8267V34.8085C30.1473 35.6136 30.7047 36.2949 31.4891 36.4601L33.0787 36.7697L32.1704 38.1116C31.7369 38.7722 31.8195 39.6599 32.3768 40.2173L33.7806 41.6211C34.338 42.1785 35.2257 42.2611 35.8863 41.8275L37.2282 40.9398L37.5379 42.5294C37.703 43.3139 38.3843 43.8713 39.1894 43.8713H41.1712C41.9764 43.8713 42.6576 43.3139 42.8228 42.5294L43.1324 40.9398L44.4743 41.8482C45.1349 42.2817 46.0226 42.1991 46.6006 41.6417L48.0044 40.2379C48.5618 39.6805 48.6444 38.7928 48.2109 38.1322L47.3232 36.7904L48.9128 36.4807C49.6973 36.3155 50.2547 35.6343 50.2547 34.8292V32.8473C50.2959 32.0216 49.7179 31.3197 48.9334 31.1752ZM48.6238 34.7879L47.0342 35.0975C46.4768 35.2008 46.0226 35.593 45.8162 36.1091C45.6097 36.6252 45.651 37.2239 45.9607 37.6781L46.869 39.0199L45.4652 40.4237L44.1234 39.5154C43.6485 39.2057 43.0705 39.1438 42.5544 39.3709C42.0383 39.5773 41.6667 40.0521 41.5428 40.5889L41.2332 42.1785H39.2513L38.9417 40.5889C38.8385 40.0315 38.4462 39.5773 37.9301 39.3709C37.414 39.1644 36.8153 39.2057 36.3612 39.5154L35.0193 40.4237L33.6155 39.0199L34.5238 37.6781C34.8335 37.2032 34.8954 36.6252 34.6683 36.1091C34.4619 35.593 33.9871 35.2214 33.4503 35.0975L31.8607 34.7879V32.806L33.4503 32.4964C34.0077 32.3932 34.4619 32.0009 34.6683 31.4848C34.8748 30.9687 34.8335 30.37 34.5238 29.9159L33.6155 28.574L35.0193 27.1702L36.3612 28.0785C36.836 28.3882 37.414 28.4501 37.9301 28.223C38.4462 28.0166 38.8178 27.5418 38.9417 27.005L39.2513 25.4154H41.2332L41.5428 27.005C41.6461 27.5624 42.0383 28.0166 42.5544 28.223C43.0705 28.4295 43.6692 28.3882 44.1234 28.0785L45.4652 27.1702L46.869 28.574L45.9607 29.9159C45.651 30.3907 45.5891 30.9687 45.8162 31.4848C46.0226 32.0009 46.4974 32.3725 47.0342 32.4964L48.6238 32.806V34.7879Z" fill="#B2B2B2"/>
<path d="M40.2216 28.7805C37.4347 28.7805 35.1844 31.0307 35.1844 33.8177C35.1844 36.6046 37.4347 38.8548 40.2216 38.8548C43.0086 38.8548 45.2588 36.6046 45.2588 33.8177C45.2588 31.0307 43.0086 28.7805 40.2216 28.7805ZM40.2216 37.162C38.3636 37.162 36.8773 35.655 36.8773 33.8177C36.8773 31.9597 38.3843 30.4733 40.2216 30.4733C42.0589 30.4733 43.566 31.9804 43.566 33.8177C43.5866 35.655 42.0796 37.162 40.2216 37.162Z" fill="#B2B2B2"/>
<path d="M21.7864 37.9878C21.7864 38.4419 22.158 38.8342 22.6328 38.8342H28.4957C28.9499 38.8342 29.3421 38.4626 29.3421 37.9878C29.3421 37.5336 28.9705 37.1414 28.4957 37.1414H22.6328C22.158 37.162 21.7864 37.5336 21.7864 37.9878Z" fill="#B2B2B2"/>
<path d="M15.9234 42.1784H20.1142C20.5684 42.1784 20.9606 41.8068 20.9606 41.332C20.9606 40.8778 20.589 40.4856 20.1142 40.4856H15.9234C15.4693 40.4856 15.077 40.8572 15.077 41.332C15.077 41.8068 15.4486 42.1784 15.9234 42.1784Z" fill="#B2B2B2"/>
<path d="M22.6122 41.3528C22.6122 41.8069 22.9838 42.1992 23.4586 42.1992H30.1679C30.6221 42.1992 31.0143 41.8276 31.0143 41.3528C31.0143 40.8986 30.6427 40.5063 30.1679 40.5063H23.4586C23.0044 40.5063 22.6122 40.8779 22.6122 41.3528Z" fill="#B2B2B2"/>
<path d="M15.077 44.6971C15.077 45.1513 15.4486 45.5435 15.9234 45.5435H32.6865C33.1406 45.5435 33.5329 45.1719 33.5329 44.6971C33.5329 44.2429 33.1613 43.8507 32.6865 43.8507H15.9234C15.4486 43.8714 15.077 44.2429 15.077 44.6971Z" fill="#B2B2B2"/>
</svg>
