<svg width="28" height="27" viewBox="0 0 28 27" fill="none" xmlns="http://www.w3.org/2000/svg">
    <path fill-rule="evenodd" clip-rule="evenodd" d="M4.3985 14.058C4.3985 16.6493 5.43499 18.9578 6.5657 20.4183C7.2724 21.3135 7.88487 21.7846 8.7329 22.4913C9.10981 22.774 9.62805 23.0566 10.0521 23.2922C10.2405 23.3864 11.3712 23.9047 11.5597 23.9047C11.6539 23.9047 12.2664 22.9624 12.3606 22.8682C12.5491 22.5855 12.8317 22.0202 12.9731 21.6432C13.35 20.701 13.6327 19.9001 13.6327 18.5809C13.6327 17.4031 13.35 16.4137 12.9731 15.6128C12.6904 14.9532 11.9366 13.9638 11.4183 13.5398C11.2299 13.3985 11.0886 13.2571 10.9001 13.1158C10.7117 12.9744 10.5232 12.8802 10.3347 12.7389C10.0521 12.5504 9.48671 12.2677 9.15692 12.1264C8.26177 11.7966 7.27239 11.6082 6.04745 11.6082C5.81189 11.6082 5.43499 11.6082 5.24654 11.6553C5.05809 11.7024 4.63407 11.7966 4.53984 11.7966C4.53984 11.9851 4.44561 12.1264 4.44561 12.3149C4.44561 12.5033 4.39849 12.6918 4.35138 12.8802C4.44561 13.2571 4.3985 13.6811 4.3985 14.058Z" fill="#777777" />
    <path fill-rule="evenodd" clip-rule="evenodd" d="M16.271 23.9047C16.4594 23.9047 17.5901 23.3864 17.7786 23.2922C18.2968 23.0566 18.6737 22.8211 19.0977 22.4913C19.9458 21.9259 20.6525 21.1721 21.2649 20.4183C22.3957 19.052 23.4793 16.6493 23.4793 14.1523V13.9167C23.4793 13.5869 23.4321 13.1158 23.385 12.8331C23.3379 12.6446 23.3379 12.5033 23.2908 12.3149C23.2908 12.1735 23.1966 11.9851 23.1966 11.8437C23.0552 11.8437 22.6312 11.7495 22.4428 11.7024C22.2072 11.6553 21.8774 11.6553 21.5947 11.6553C20.3227 11.6553 19.4746 11.8437 18.4853 12.1735C18.0612 12.3149 17.6372 12.5504 17.2603 12.786C16.8363 13.0687 16.6007 13.2571 16.2238 13.5869C14.9989 14.6234 14.0566 16.3666 14.0566 18.5809C14.0566 19.9001 14.3864 20.701 14.7162 21.6433C14.8576 22.0202 15.1402 22.5384 15.3287 22.8682C15.5643 22.9624 16.2238 23.9047 16.271 23.9047Z" fill="#777777" />
    <path fill-rule="evenodd" clip-rule="evenodd" d="M6.98969 7.79214C7.0368 7.93348 7.13102 8.21615 7.17813 8.35749C7.22525 8.54594 7.31947 8.73439 7.4137 8.87573C7.60215 9.25264 7.79061 9.4882 7.97906 9.81799C8.40308 10.4776 8.8271 10.9487 9.39245 11.467C10.3347 12.315 12.0779 13.2101 13.8211 13.2101H14.0095C14.9047 13.2101 15.8941 12.9275 16.5536 12.6448C17.3075 12.3621 17.8728 11.9381 18.4382 11.467C18.6737 11.2785 18.9564 10.9016 19.192 10.666C19.4275 10.4305 19.616 10.1007 19.8516 9.81799C20.04 9.53531 20.2756 9.15841 20.4169 8.87573C20.5111 8.73439 20.6054 8.49882 20.6525 8.35749C20.6996 8.21615 20.7938 7.93348 20.8409 7.79214C20.6996 7.55657 19.8044 6.9441 19.5218 6.75564C19.0977 6.47297 18.4853 6.14318 17.967 5.90761C16.7892 5.43648 15.6114 5.05957 14.0095 5.05957H13.8682C12.2192 5.05957 11.0414 5.43648 9.86358 5.90761C9.34534 6.09607 8.73288 6.47297 8.30886 6.75564C8.07329 6.9441 7.13102 7.55657 6.98969 7.79214Z" fill="#777777" />
    <path fill-rule="evenodd" clip-rule="evenodd" d="M6.89545 5.53031C7.0839 5.43609 7.36657 5.20053 7.55503 5.1063C7.74348 4.96496 8.02616 4.82362 8.26172 4.68228C8.77997 4.39961 9.20398 4.21115 9.76933 3.97559C10.6174 3.6458 12.3134 3.22178 13.4913 3.22178H14.0566C15.6585 3.22178 16.7892 3.50445 18.0141 3.88136C18.4852 4.0227 19.2391 4.35249 19.616 4.58805C19.8515 4.72939 20.1342 4.87073 20.3227 5.01207C20.5111 5.15341 20.8409 5.38897 21.0294 5.4832C21.0294 5.05918 20.9351 4.54094 20.8409 4.11692C20.7467 3.6929 20.6525 3.26888 20.5582 2.89198C20.5111 2.70353 20.464 2.42086 20.3698 2.32663C20.2284 2.2324 20.0871 2.13817 19.8986 1.99683C19.616 1.80838 19.2862 1.57282 18.9564 1.43149C17.6372 0.771903 16.0825 0.206543 14.1509 0.206543H13.6797C12.0779 0.206543 9.91068 0.819016 8.9213 1.43149C8.59151 1.61994 8.30883 1.76127 7.97904 1.99683C7.8377 2.09106 7.69637 2.18529 7.55503 2.32663C7.4608 2.42086 7.41369 2.75064 7.36658 2.89198C7.13101 3.50445 6.89545 4.87073 6.89545 5.53031Z" fill="#777777" />
    <path fill-rule="evenodd" clip-rule="evenodd" d="M0.299618 14.906L0.252502 15.9896V16.3665C0.252502 18.8635 1.19476 21.0307 2.27836 22.4912C2.7966 23.245 3.55042 24.0459 4.25711 24.6113C4.68113 24.9411 5.01092 25.1766 5.43494 25.4593C5.62339 25.6007 5.85895 25.6949 6.09452 25.8362C6.28297 25.9304 6.61276 26.0718 6.80122 26.166C7.36657 26.0247 7.88481 25.8833 8.35594 25.742C8.59151 25.6478 9.62799 25.2709 9.76933 25.1295C9.53377 25.0824 8.5444 24.5171 8.30884 24.3757C7.83771 24.0459 7.41368 23.8104 6.98967 23.4335C6.18874 22.7268 5.43493 22.0201 4.82246 21.1249C4.20999 20.2298 3.64464 19.2875 3.26774 18.1568C2.93794 17.1203 2.56104 15.754 2.56104 14.3878V14.1993L2.60816 12.8801C2.23125 13.0686 1.66589 13.5868 1.3361 13.8695C1.14764 14.0108 0.440958 14.7175 0.299618 14.906Z" fill="#777777" />
    <path fill-rule="evenodd" clip-rule="evenodd" d="M26.7301 20.7009C27.2012 19.7586 27.6723 18.0626 27.6723 16.6492V15.9425L27.6252 14.9531C27.3426 14.5291 25.7407 13.1157 25.2225 12.8801L25.2696 13.8224V14.2935C25.2696 15.6127 24.9398 17.1203 24.61 18.1097C24.1389 19.3346 23.762 20.0884 23.0553 21.0778C22.4899 21.9258 21.689 22.7268 20.8881 23.4335C20.5112 23.7632 19.9929 24.1401 19.5689 24.3757C19.2862 24.5642 18.4382 25.0824 18.1084 25.1295C18.2969 25.318 19.5218 25.742 19.8987 25.8362C20.1814 25.9304 20.5583 26.0247 20.8881 26.1189C21.1707 26.166 21.0765 26.1189 21.3592 26.0247C21.5005 25.9776 21.6419 25.8833 21.7832 25.8362C22.9139 25.2709 23.8091 24.5642 24.6571 23.7161C25.5523 22.821 26.1647 21.8316 26.7301 20.7009Z" fill="#777777" />
</svg>