<svg width="32" height="30" viewBox="0 0 32 30" fill="none" xmlns="http://www.w3.org/2000/svg">
    <path fill-rule="evenodd" clip-rule="evenodd" d="M4.82767 15.9425C4.82767 18.8849 6.00462 21.5062 7.28855 23.1647C8.09101 24.1811 8.78648 24.7161 9.74943 25.5185C10.1774 25.8395 10.7659 26.1605 11.2474 26.428C11.4613 26.535 12.7453 27.1235 12.9593 27.1235C13.0663 27.1235 13.7617 26.0535 13.8687 25.9465C14.0827 25.6255 14.4037 24.9836 14.5642 24.5556C14.9922 23.4856 15.3132 22.5762 15.3132 21.0783C15.3132 19.7408 14.9922 18.6174 14.5642 17.7079C14.2432 16.959 13.3872 15.8355 12.7988 15.354C12.5848 15.1935 12.4243 15.0331 12.2103 14.8726C11.9963 14.7121 11.7823 14.6051 11.5683 14.4446C11.2474 14.2306 10.6054 13.9096 10.2309 13.7491C9.21446 13.3746 8.09101 13.1606 6.70008 13.1606C6.43259 13.1606 6.00462 13.1606 5.79063 13.2141C5.57664 13.2676 5.09517 13.3746 4.98817 13.3746C4.98817 13.5886 4.88117 13.7491 4.88117 13.9631C4.88117 14.1771 4.82767 14.3911 4.77417 14.6051C4.88116 15.0331 4.82767 15.5145 4.82767 15.9425Z" fill="#0D0606" />
    <path fill-rule="evenodd" clip-rule="evenodd" d="M18.309 27.1238C18.523 27.1238 19.8069 26.5353 20.0209 26.4283C20.6094 26.1608 21.0374 25.8934 21.5188 25.5189C22.4818 24.8769 23.2843 24.0209 23.9797 23.165C25.2637 21.6136 26.4941 18.8852 26.4941 16.0498V15.7824C26.4941 15.4079 26.4406 14.8729 26.3871 14.5519C26.3336 14.3379 26.3336 14.1774 26.2801 13.9634C26.2801 13.8029 26.1731 13.589 26.1731 13.4285C26.0126 13.4285 25.5311 13.3215 25.3172 13.268C25.0497 13.2145 24.6752 13.2145 24.3542 13.2145C22.9098 13.2145 21.9468 13.4285 20.8234 13.803C20.3419 13.9634 19.8604 14.2309 19.4324 14.4984C18.951 14.8194 18.6835 15.0334 18.2555 15.4079C16.8646 16.5848 15.7946 18.5642 15.7946 21.0786C15.7946 22.5765 16.1691 23.486 16.5436 24.5559C16.7041 24.9839 17.0251 25.5724 17.2391 25.9469C17.5065 26.0539 18.2555 27.1238 18.309 27.1238Z" fill="#0D0606" />
    <path fill-rule="evenodd" clip-rule="evenodd" d="M7.77002 8.82765C7.82352 8.98814 7.93051 9.30912 7.98401 9.46961C8.0375 9.6836 8.1445 9.89759 8.25149 10.0581C8.46548 10.4861 8.67948 10.7535 8.89347 11.128C9.37494 11.877 9.85642 12.412 10.4984 13.0004C11.5683 13.9634 13.5477 14.9798 15.5271 14.9798H15.7411C16.7576 14.9798 17.881 14.6589 18.63 14.3379C19.486 14.0169 20.1279 13.5354 20.7699 13.0004C21.0374 12.7864 21.3583 12.3585 21.6258 12.091C21.8933 11.8235 22.1073 11.449 22.3748 11.128C22.5888 10.807 22.8563 10.3791 23.0168 10.0581C23.1238 9.89759 23.2308 9.6301 23.2843 9.46961C23.3378 9.30912 23.4447 8.98814 23.4982 8.82765C23.3377 8.56016 22.3213 7.86469 22.0003 7.6507C21.5188 7.32972 20.8234 6.95524 20.2349 6.68775C18.8975 6.15278 17.56 5.72479 15.7411 5.72479H15.5806C13.7082 5.72479 12.3708 6.15278 11.0334 6.68775C10.4449 6.90174 9.74943 7.32972 9.26796 7.6507C9.00047 7.86469 7.93051 8.56016 7.77002 8.82765Z" fill="#0D0606" />
    <path fill-rule="evenodd" clip-rule="evenodd" d="M7.66296 6.25937C7.87695 6.15237 8.19793 5.88489 8.41192 5.77789C8.62591 5.6174 8.9469 5.45691 9.21438 5.29642C9.80285 4.97544 10.2843 4.76145 10.9263 4.49396C11.8892 4.11948 13.8152 3.638 15.1526 3.638H15.7946C17.6135 3.638 18.8974 3.95898 20.2883 4.38696C20.8233 4.54745 21.6793 4.92193 22.1073 5.18942C22.3747 5.34991 22.6957 5.5104 22.9097 5.67089C23.1237 5.83139 23.4982 6.09887 23.7122 6.20587C23.7122 5.72439 23.6052 5.13592 23.4982 4.65445C23.3912 4.17297 23.2842 3.69149 23.1772 3.26351C23.1237 3.04952 23.0702 2.72855 22.9632 2.62155C22.8027 2.51456 22.6422 2.40756 22.4282 2.24707C22.1072 2.03308 21.7328 1.7656 21.3583 1.60511C19.8603 0.856144 18.0949 0.214172 15.9016 0.214172H15.3666C13.5477 0.214172 11.0868 0.909641 9.96334 1.60511C9.58886 1.8191 9.26788 1.97958 8.8934 2.24707C8.7329 2.35406 8.57242 2.46106 8.41192 2.62155C8.30493 2.72855 8.25143 3.10302 8.19794 3.26351C7.93045 3.95898 7.66296 5.5104 7.66296 6.25937Z" fill="#D13239" />
    <path fill-rule="evenodd" clip-rule="evenodd" d="M0.173374 16.9055L0.119873 18.136V18.564C0.119873 21.3993 1.18981 23.8602 2.42025 25.5186C3.00872 26.3746 3.86469 27.284 4.66715 27.926C5.14862 28.3005 5.52311 28.568 6.00458 28.889C6.21857 29.0495 6.48606 29.1564 6.75354 29.3169C6.96753 29.4239 7.34201 29.5844 7.556 29.6914C8.19797 29.5309 8.78644 29.3704 9.32141 29.2099C9.58889 29.1029 10.7658 28.675 10.9263 28.5145C10.6588 28.461 9.53541 27.819 9.26792 27.6585C8.73295 27.284 8.25146 27.0165 7.76999 26.5886C6.86053 25.7861 6.00457 24.9837 5.30911 23.9672C4.61364 22.9508 3.97168 21.8808 3.5437 20.5969C3.16922 19.4199 2.74124 17.8685 2.74124 16.3171V16.1031L2.79474 14.6052C2.36676 14.8192 1.72479 15.4076 1.35031 15.7286C1.13632 15.8891 0.333866 16.6916 0.173374 16.9055Z" fill="#D13239" />
    <path fill-rule="evenodd" clip-rule="evenodd" d="M30.1854 23.4857C30.7204 22.4158 31.2553 20.4899 31.2553 18.885V18.0825L31.2019 16.959C30.8809 16.4776 29.0619 14.8727 28.4735 14.6052L28.527 15.6751V16.2101C28.527 17.708 28.1525 19.4199 27.778 20.5434C27.243 21.9343 26.8151 22.7903 26.0126 23.9137C25.3706 24.8767 24.4612 25.7861 23.5517 26.5886C23.1237 26.9631 22.5353 27.391 22.0538 27.6585C21.7328 27.8725 20.7699 28.461 20.3954 28.5145C20.6094 28.7285 22.0003 29.2099 22.4283 29.3169C22.7493 29.4239 23.1772 29.5309 23.5517 29.6379C23.8727 29.6914 23.7657 29.6379 24.0867 29.5309C24.2472 29.4774 24.4077 29.3704 24.5682 29.3169C25.8521 28.675 26.8686 27.8725 27.8315 26.9096C28.848 25.8931 29.5434 24.7697 30.1854 23.4857Z" fill="#D13239" />
</svg>