<svg width="57" height="56" viewBox="0 0 57 56" fill="none" xmlns="http://www.w3.org/2000/svg">
    <path d="M55.3524 18.0246C55.8004 18.0246 56.1633 17.6615 56.1633 17.2137V12.3114C56.1633 10.97 55.072 9.8787 53.7306 9.8787H43.6574C43.6372 8.42187 42.4466 7.24291 40.9852 7.24291C40.2932 7.24291 39.6616 7.50737 39.1864 7.94051L31.1742 3.3154C31.217 3.12575 31.2404 2.92897 31.2404 2.72657C31.2404 1.25266 30.0413 0.0535889 28.5674 0.0535889C27.0935 0.0535889 25.8943 1.25266 25.8943 2.72668C25.8943 2.91643 25.9145 3.10153 25.9522 3.28026L17.8794 7.94062C17.4042 7.50748 16.7726 7.24302 16.0805 7.24302C14.6192 7.24302 13.4285 8.42208 13.4084 9.8788H3.33529C1.99394 9.8788 0.902557 10.9701 0.902557 12.3115V42.1228C0.902557 43.4643 1.99394 44.5555 3.33529 44.5555H22.8426V48.9411H18.934C18.0099 48.9411 17.2581 49.6929 17.2581 50.617V53.6823C17.2581 54.6064 18.0099 55.3582 18.934 55.3582H20.4152C20.8632 55.3582 21.2262 54.9951 21.2262 54.5472C21.2262 54.0994 20.8632 53.7363 20.4152 53.7363H18.934C18.9042 53.7363 18.8799 53.7121 18.8799 53.6823V50.617C18.8799 50.5877 18.9047 50.563 18.934 50.563H38.1321C38.1614 50.563 38.1862 50.5877 38.1862 50.617V53.6823C38.1862 53.7121 38.1619 53.7363 38.1321 53.7363H24.1996C23.7517 53.7363 23.3887 54.0994 23.3887 54.5472C23.3887 54.9951 23.7517 55.3582 24.1996 55.3582H38.1321C39.0562 55.3582 39.808 54.6064 39.808 53.6823V50.617C39.808 49.6929 39.0562 48.9411 38.1321 48.9411H34.2235V44.5555H53.7308C55.0722 44.5555 56.1636 43.4643 56.1636 42.1228V20.998C56.1636 20.5502 55.8006 20.1871 55.3526 20.1871C54.9047 20.1871 54.5417 20.5502 54.5417 20.998V36.1103C54.5417 36.7363 54.0325 37.2455 53.4065 37.2455H3.65976C3.03374 37.2455 2.52449 36.7363 2.52449 36.1103V12.3116C2.52449 11.8645 2.88821 11.5007 3.3354 11.5007H13.9297C14.2606 11.9488 14.7279 12.2901 15.2698 12.4631V21.7481C14.1912 22.0923 13.4077 23.1037 13.4077 24.295C13.4077 25.7689 14.6068 26.9679 16.0808 26.9679C16.773 26.9679 17.4046 26.7034 17.8799 26.2701L25.9222 30.9128C25.8819 31.097 25.86 31.288 25.86 31.4843C25.86 32.9582 27.0592 34.1574 28.5331 34.1574C30.007 34.1574 31.2062 32.9583 31.2062 31.4843C31.2062 31.2882 31.1844 31.0971 31.144 30.9128L39.1862 26.2702C39.6615 26.7035 40.293 26.9679 40.9852 26.9679C42.4592 26.9679 43.6583 25.7689 43.6583 24.295C43.6583 23.1037 42.8749 22.0924 41.7964 21.7481V12.463C42.3383 12.29 42.8056 11.9488 43.1365 11.5006H53.7308C54.178 11.5006 54.5417 11.8643 54.5417 12.3115V17.2138C54.5415 17.6616 54.9046 18.0246 55.3524 18.0246ZM32.6015 48.941H24.4643V44.5554H32.6015V48.941ZM3.65965 38.8672H53.4063C53.8109 38.8672 54.1951 38.7789 54.5416 38.6217V42.1228C54.5416 42.57 54.1779 42.9337 53.7307 42.9337H3.33529C2.8881 42.9337 2.52438 42.57 2.52438 42.1228V38.6216C2.8708 38.7789 3.25496 38.8672 3.65965 38.8672ZM38.312 24.2949C38.312 24.4909 38.3339 24.6819 38.3741 24.8661L30.3318 29.5086C30.0507 29.2523 29.7147 29.0554 29.3439 28.9371V19.6629C30.4403 19.3294 31.2405 18.3092 31.2405 17.1053C31.2405 16.903 31.2171 16.7062 31.1744 16.5167L39.1861 11.8909C39.4673 12.1474 39.8035 12.3445 40.1744 12.4629V21.7478C39.0956 22.092 38.312 23.1035 38.312 24.2949ZM26.7341 29.5086L18.6916 24.866C18.7318 24.6818 18.7536 24.4909 18.7536 24.2949C18.7536 23.1036 17.9701 22.0921 16.8915 21.7479V12.463C17.2624 12.3446 17.5986 12.1475 17.8798 11.8912L25.9521 16.5522C25.9144 16.7308 25.8942 16.9158 25.8942 17.1055C25.8942 18.2841 26.6612 19.2861 27.7219 19.6408V28.9373C27.3512 29.0554 27.0153 29.2523 26.7341 29.5086ZM28.5674 5.39965C29.2531 5.39965 29.8791 5.13995 30.3528 4.71395L38.3744 9.34447C38.3341 9.52871 38.3123 9.71976 38.3123 9.916C38.3123 10.112 38.3341 10.3029 38.3743 10.487L30.353 15.1183C29.8793 14.6922 29.2532 14.4323 28.5674 14.4323C27.8686 14.4323 27.2318 14.7022 26.7551 15.1428L18.6916 10.487C18.7318 10.3029 18.7536 10.112 18.7536 9.916C18.7536 9.71986 18.7318 9.52871 18.6915 9.34447L26.7552 4.6894C27.232 5.12989 27.8687 5.39965 28.5674 5.39965ZM28.5674 18.1566C27.9877 18.1566 27.5161 17.6851 27.5161 17.1053C27.5161 16.5256 27.9876 16.0541 28.5674 16.0541C29.1471 16.0541 29.6186 16.5256 29.6186 17.1053C29.6186 17.6851 29.147 18.1566 28.5674 18.1566ZM28.5674 1.67541C29.147 1.67541 29.6186 2.14693 29.6186 2.72668C29.6186 3.30642 29.1471 3.77794 28.5674 3.77794C27.9876 3.77794 27.5161 3.30642 27.5161 2.72668C27.5161 2.14693 27.9876 1.67541 28.5674 1.67541ZM16.0806 8.86473C16.6603 8.86473 17.1319 9.33625 17.1319 9.916C17.1319 10.4957 16.6604 10.9673 16.0806 10.9673C15.5009 10.9673 15.0294 10.4957 15.0294 9.916C15.0294 9.33625 15.5009 8.86473 16.0806 8.86473ZM16.0806 25.346C15.501 25.346 15.0294 24.8745 15.0294 24.2949C15.0294 23.7152 15.5009 23.2436 16.0806 23.2436C16.6604 23.2436 17.1319 23.7151 17.1319 24.2949C17.1318 24.8744 16.6603 25.346 16.0806 25.346ZM28.5329 32.5352C27.9533 32.5352 27.4816 32.0637 27.4816 31.484C27.4816 30.9042 27.9531 30.4327 28.5329 30.4327C29.1126 30.4327 29.5842 30.9042 29.5842 31.484C29.5842 32.0637 29.1126 32.5352 28.5329 32.5352ZM40.985 25.346C40.4054 25.346 39.9338 24.8745 39.9338 24.2949C39.9338 23.7152 40.4053 23.2436 40.985 23.2436C41.5648 23.2436 42.0363 23.7151 42.0363 24.2949C42.0363 24.8744 41.5648 25.346 40.985 25.346ZM40.9852 10.9672C40.4056 10.9672 39.934 10.4956 39.934 9.91589C39.934 9.33614 40.4055 8.86462 40.9852 8.86462C41.565 8.86462 42.0365 9.33614 42.0365 9.91589C42.0365 10.4956 41.565 10.9672 40.9852 10.9672Z" fill="#B2B2B2" />
</svg>