<svg width="53" height="53" viewBox="0 0 53 53" fill="none" xmlns="http://www.w3.org/2000/svg">
<path d="M51.9597 46.4326L45.4853 39.9582C46.853 37.251 47.2378 34.1527 46.5739 31.1931C45.91 28.2336 44.2387 25.5965 41.8457 23.7329C39.4527 21.8692 36.4866 20.8947 33.4546 20.976C30.4225 21.0573 27.5129 22.1892 25.2231 24.1784C26.1557 23.1358 26.702 21.8047 26.771 20.4076C26.8399 19.0105 26.4271 17.6321 25.6017 16.5028C24.7763 15.3735 23.5883 14.5618 22.2362 14.2033C20.8842 13.8448 19.45 13.9612 18.1735 14.5332C16.897 15.1052 15.8555 16.098 15.2232 17.3457C14.5908 18.5933 14.4059 20.0203 14.6993 21.3879C14.9927 22.7556 15.7467 23.9811 16.8353 24.8596C17.9238 25.738 19.2809 26.2162 20.6797 26.2142C22.0362 26.2162 23.3537 25.7606 24.4193 24.9211C22.451 26.9386 21.1856 29.5369 20.8107 32.3304H19.8059V34.0779H20.6797C20.6755 36.4241 21.3023 38.7282 22.4944 40.7489C23.6866 42.7696 25.4002 44.4326 27.4558 45.5635C29.5113 46.6945 31.8332 47.2519 34.1782 47.1773C36.5232 47.1027 38.805 46.3988 40.7845 45.1395L47.0143 51.378C47.6701 52.0338 48.5596 52.4023 49.487 52.4023C50.4145 52.4023 51.3039 52.0338 51.9597 51.378C52.6155 50.7222 52.9839 49.8328 52.9839 48.9053C52.9839 47.9779 52.6155 47.0884 51.9597 46.4326ZM20.6797 24.4667C19.8156 24.4667 18.971 24.2105 18.2525 23.7305C17.5341 23.2504 16.9742 22.5681 16.6435 21.7698C16.3128 20.9716 16.2263 20.0932 16.3949 19.2457C16.5635 18.3983 16.9795 17.6198 17.5905 17.0088C18.2015 16.3979 18.9799 15.9818 19.8274 15.8132C20.6748 15.6447 21.5532 15.7312 22.3515 16.0618C23.1498 16.3925 23.8321 16.9524 24.3121 17.6709C24.7922 18.3893 25.0484 19.2339 25.0484 20.098C25.0484 21.2567 24.5881 22.3679 23.7688 23.1871C22.9495 24.0064 21.8383 24.4667 20.6797 24.4667ZM33.7858 45.4366C31.5393 45.4366 29.3432 44.7704 27.4753 43.5223C25.6074 42.2742 24.1515 40.5002 23.2918 38.4247C22.4321 36.3491 22.2071 34.0653 22.6454 31.8619C23.0837 29.6586 24.1655 27.6346 25.754 26.0461C27.3426 24.4576 29.3665 23.3758 31.5699 22.9375C33.7732 22.4992 36.0571 22.7241 38.1326 23.5839C40.2081 24.4436 41.9821 25.8994 43.2302 27.7674C44.4783 29.6353 45.1445 31.8314 45.1445 34.0779C45.1417 37.0896 43.9441 39.9771 41.8146 42.1066C39.685 44.2362 36.7975 45.4338 33.7858 45.4366ZM50.719 50.1373C50.5573 50.2993 50.3653 50.4278 50.1539 50.5155C49.9425 50.6032 49.7159 50.6484 49.487 50.6484C49.2581 50.6484 49.0315 50.6032 48.8201 50.5155C48.6087 50.4278 48.4167 50.2993 48.255 50.1373L42.2175 44.0997C43.1096 43.3431 43.8997 42.4737 44.5678 41.5135L50.719 47.6734C50.881 47.835 51.0095 48.0271 51.0972 48.2384C51.1849 48.4498 51.23 48.6765 51.23 48.9053C51.23 49.1342 51.1849 49.3608 51.0972 49.5722C51.0095 49.7836 50.881 49.9756 50.719 50.1373Z" fill="#B2B2B2"/>
<path d="M33.7858 24.4667C31.8849 24.4667 30.0267 25.0304 28.4461 26.0865C26.8656 27.1425 25.6337 28.6436 24.9062 30.3998C24.1788 32.156 23.9885 34.0885 24.3593 35.9529C24.7302 37.8173 25.6455 39.5298 26.9897 40.874C28.3338 42.2181 30.0464 43.1335 31.9108 43.5044C33.7751 43.8752 35.7076 43.6849 37.4639 42.9574C39.2201 42.23 40.7211 40.9981 41.7772 39.4175C42.8333 37.837 43.397 35.9788 43.397 34.0779C43.394 31.5297 42.3804 29.0868 40.5786 27.285C38.7768 25.4832 36.3339 24.4697 33.7858 24.4667ZM33.7858 41.9416C32.2305 41.9416 30.7102 41.4804 29.417 40.6163C28.1238 39.7522 27.1159 38.5241 26.5207 37.0872C25.9255 35.6503 25.7698 34.0691 26.0732 32.5437C26.3766 31.0183 27.1256 29.6171 28.2253 28.5174C29.3251 27.4176 30.7263 26.6687 32.2517 26.3653C33.7771 26.0618 35.3582 26.2176 36.7951 26.8128C38.232 27.4079 39.4602 28.4158 40.3242 29.709C41.1883 31.0022 41.6495 32.5226 41.6495 34.0779C41.647 36.1627 40.8176 38.1613 39.3435 39.6355C37.8693 41.1097 35.8706 41.939 33.7858 41.9416Z" fill="#B2B2B2"/>
<path d="M19.8059 6.11804H21.5534V7.86553H19.8059V6.11804Z" fill="#B2B2B2"/>
<path d="M10.1747 10.8311L11.4104 9.59539L12.6461 10.8311L11.4104 12.0667L10.1747 10.8311Z" fill="#B2B2B2"/>
<path d="M6.69977 19.2242H8.44726V20.9717H6.69977V19.2242Z" fill="#B2B2B2"/>
<path d="M10.1726 29.3636L11.4083 28.128L12.644 29.3636L11.4083 30.5993L10.1726 29.3636Z" fill="#B2B2B2"/>
<path d="M34.6595 19.2242H32.912V20.9717H33.7858H34.6595V19.2242Z" fill="#B2B2B2"/>
<path d="M28.7073 10.8323L29.943 9.59661L31.1787 10.8323L29.943 12.0679L28.7073 10.8323Z" fill="#B2B2B2"/>
<path d="M20.6797 29.7092V27.9617C19.1244 27.9617 17.604 27.5005 16.3108 26.6364C15.0177 25.7724 14.0097 24.5442 13.4146 23.1073C12.8194 21.6704 12.6636 20.0893 12.9671 18.5639C13.2705 17.0385 14.0194 15.6373 15.1192 14.5375C16.219 13.4378 17.6201 12.6888 19.1455 12.3854C20.6709 12.082 22.2521 12.2377 23.689 12.8329C25.1259 13.4281 26.354 14.436 27.2181 15.7292C28.0822 17.0223 28.5434 18.5427 28.5434 20.098H30.2909C30.2909 18.1971 29.7272 16.3389 28.6711 14.7583C27.615 13.1778 26.1139 11.9459 24.3577 11.2184C22.6015 10.491 20.669 10.3006 18.8046 10.6715C16.9402 11.0423 15.2277 11.9577 13.8835 13.3019C12.5394 14.646 11.624 16.3586 11.2532 18.223C10.8823 20.0873 11.0726 22.0198 11.8001 23.776C12.5275 25.5323 13.7594 27.0333 15.34 28.0894C16.9205 29.1455 18.7788 29.7092 20.6797 29.7092Z" fill="#B2B2B2"/>
<path d="M17.6216 33.3203C17.5873 33.1671 17.5125 33.026 17.4048 32.9118C17.2972 32.7976 17.1608 32.7144 17.0099 32.6711C16.0935 32.406 15.2083 32.0431 14.3695 31.5886C14.2325 31.5135 14.0778 31.4768 13.9217 31.4823C13.7656 31.4879 13.6139 31.5354 13.4826 31.62L9.06674 34.4326L6.34503 31.7109L9.15761 27.295C9.24157 27.1634 9.28877 27.0118 9.2943 26.8558C9.29984 26.6999 9.2635 26.5453 9.18906 26.4081C8.73455 25.5693 8.37161 24.6841 8.10649 23.7677C8.06319 23.6168 7.98005 23.4804 7.86582 23.3728C7.75158 23.2652 7.61047 23.1903 7.4573 23.156L2.33105 22.0202V18.1757L7.4573 17.0398C7.61047 17.0056 7.75158 16.9307 7.86582 16.8231C7.98005 16.7155 8.06319 16.5791 8.10649 16.4282C8.37161 15.5118 8.73455 14.6265 9.18906 13.7878C9.26363 13.6507 9.30011 13.4961 9.29474 13.3402C9.28936 13.1842 9.24231 13.0325 9.15848 12.9009L6.35027 8.47715L9.07023 5.76243L13.487 8.57501C13.6186 8.65897 13.7702 8.70617 13.9261 8.71171C14.0821 8.71724 14.2367 8.6809 14.3739 8.60646C15.2113 8.15254 16.095 7.7899 17.0099 7.52477C17.1608 7.48146 17.2972 7.39833 17.4048 7.28409C17.5125 7.16986 17.5873 7.02874 17.6216 6.87558L18.7574 1.74932H22.6019L23.7378 6.87558C23.772 7.02874 23.8469 7.16986 23.9545 7.28409C24.0621 7.39833 24.1985 7.48146 24.3494 7.52477C25.2658 7.78988 26.1511 8.15283 26.9899 8.60734C27.1272 8.68119 27.2816 8.71727 27.4374 8.7119C27.5932 8.70652 27.7448 8.65989 27.8767 8.57676L32.3005 5.7633L35.0143 8.47715L32.2009 12.9009C32.117 13.0325 32.07 13.1842 32.0646 13.3402C32.0592 13.4961 32.0957 13.6507 32.1703 13.7878C32.6248 14.6265 32.9877 15.5118 33.2528 16.4282C33.2962 16.5791 33.3793 16.7155 33.4935 16.8231C33.6078 16.9307 33.7489 17.0056 33.902 17.0398L39.0283 18.1757V20.9717H40.7758V17.4767C40.7757 17.278 40.7079 17.0851 40.5836 16.9301C40.4592 16.7751 40.2857 16.6671 40.0916 16.6239L34.7758 15.4409C34.549 14.7458 34.2715 14.0683 33.9457 13.4138L36.8649 8.82665C36.9716 8.65888 37.0179 8.45975 36.9961 8.26214C36.9743 8.06452 36.8858 7.88023 36.7452 7.73971L33.0405 4.03503C32.9002 3.89335 32.7155 3.80396 32.5173 3.7817C32.3191 3.75945 32.1193 3.80568 31.951 3.91271L27.3638 6.83189C26.7093 6.50609 26.0318 6.22866 25.3367 6.00183L24.1537 0.685973C24.1105 0.491946 24.0026 0.318424 23.8475 0.194046C23.6925 0.0696667 23.4997 0.00186516 23.3009 0.00183105H18.0584C17.8597 0.00186516 17.6669 0.0696667 17.5118 0.194046C17.3568 0.318424 17.2488 0.491946 17.2057 0.685973L16.0226 6.00183C15.3278 6.2289 14.6503 6.50602 13.9955 6.83101L9.41449 3.91358C9.247 3.8069 9.04817 3.76045 8.85075 3.7819C8.65333 3.80334 8.46911 3.89139 8.32842 4.03154L4.61501 7.73621C4.47339 7.87686 4.38419 8.06176 4.36225 8.26015C4.34031 8.45853 4.38696 8.65845 4.49444 8.82665L7.41361 13.4138C7.08782 14.0683 6.81039 14.7458 6.58356 15.4409L1.2677 16.6239C1.07367 16.6671 0.900151 16.7751 0.775772 16.9301C0.651393 17.0851 0.583591 17.278 0.583557 17.4767V22.7192C0.583591 22.9179 0.651393 23.1108 0.775772 23.2658C0.900151 23.4208 1.07367 23.5288 1.2677 23.572L6.58356 24.755C6.81063 25.4498 7.08775 26.1273 7.41274 26.7821L4.49531 31.3631C4.38851 31.5308 4.34209 31.7299 4.36369 31.9275C4.38529 32.1251 4.47364 32.3094 4.61414 32.4501L8.32755 36.1635C8.46818 36.304 8.65252 36.3923 8.85013 36.4139C9.04775 36.4355 9.24682 36.3891 9.41449 36.2823L13.9955 33.3649C14.6503 33.6899 15.3278 33.967 16.0226 34.1941L17.2057 39.5099C17.2488 39.7039 17.3568 39.8775 17.5118 40.0018C17.6669 40.1262 17.8597 40.194 18.0584 40.1941H20.1117V38.4466H18.7574L17.6216 33.3203Z" fill="#B2B2B2"/>
</svg>
