<svg width="46" height="46" viewBox="0 0 46 46" fill="none" xmlns="http://www.w3.org/2000/svg">
<path d="M15.2908 10.5764C16.2299 11.2471 16.9006 11.7166 17.5714 12.1191C17.9068 12.3203 18.3092 12.4545 18.6446 12.3874C18.8458 12.3203 19.047 11.8508 19.047 11.5154C19.3824 8.89952 19.7848 8.49707 22.3337 8.49707C22.9373 8.49707 23.4739 8.49707 24.0776 8.49707C25.7545 8.56414 26.4923 9.30198 26.6264 11.0459C26.6935 11.5154 26.8947 11.9849 27.0289 12.4545C27.4984 12.2532 27.9679 12.1862 28.3033 11.8508C29.846 10.5764 30.7851 10.5764 32.2607 11.985C32.7302 12.4545 33.1327 12.8569 33.6022 13.3264C35.0108 14.8021 35.0107 15.7411 33.7363 17.2838C33.468 17.6192 33.3339 18.1558 33.1997 18.5583C33.6022 18.6924 34.0046 18.9607 34.4071 18.9607C36.4193 19.0949 37.023 19.6985 37.0901 21.7778C37.0901 22.3815 37.0901 22.9181 37.0901 23.5218C37.0901 25.8023 36.4864 26.3389 34.2729 26.5401C33.9376 26.5401 33.2668 26.7414 33.2668 26.9426C33.1997 27.345 33.401 27.8146 33.6693 28.1499C35.0778 29.8939 35.0778 30.6988 33.5351 32.3085C33.0656 32.7781 32.6631 33.1805 32.1936 33.65C30.9192 34.8574 29.846 34.8574 28.5045 33.7842C28.1021 33.4488 27.5655 33.3147 27.096 33.1134C26.9618 33.583 26.6935 34.0525 26.6935 34.522C26.5594 36.266 25.8886 37.0038 24.1447 37.0038C23.541 37.0038 23.0044 37.0038 22.4007 37.0038C19.7178 37.0038 19.3824 36.6684 19.047 34.0525C18.9799 33.7171 18.7787 33.3147 18.5104 33.1134C18.3092 32.9793 17.8397 33.2476 17.6384 33.4488C15.6262 35.0586 14.9555 35.0586 13.1445 33.2476C12.742 32.9122 12.4066 32.5098 12.0042 32.1073C10.7298 30.7658 10.7298 29.7597 11.9371 28.2841C12.2054 27.9487 12.3396 27.4121 12.5408 27.0097C12.1383 26.8755 11.7359 26.6072 11.3334 26.6072C9.3212 26.4731 8.65045 25.8023 8.65045 23.7901C8.65045 23.1193 8.65045 22.4486 8.65045 21.7778C8.71753 19.8327 9.3212 19.229 11.3334 19.0949C11.803 19.0278 12.2054 18.7595 12.6078 18.5583C12.4066 18.1558 12.2725 17.7534 12.0042 17.418C10.7298 15.8753 10.6627 14.9362 12.1383 13.5277C13.0774 12.3874 14.1506 11.5825 15.2908 10.5764ZM32.529 30.0951C29.6448 28.4853 30.6509 26.4731 31.9924 24.3267C32.8644 24.3267 33.8705 24.3267 34.8095 24.3267C34.8095 23.1864 34.8095 22.2474 34.8095 21.04C31.4558 22.3144 31.2546 19.5644 30.3826 17.6192C31.0533 16.8814 31.7241 16.1436 32.4619 15.3387C31.7241 14.5338 30.9863 13.863 30.3155 13.1252C27.8338 15.2045 27.8338 15.2045 24.3459 13.7289C24.3459 12.7899 24.3459 11.7837 24.3459 10.7105C23.2056 10.7105 22.2666 10.7105 21.1934 10.7105C21.1934 11.8508 21.1934 12.7899 21.1934 13.7289C19.919 14.2655 18.7787 14.735 17.3701 15.3387C16.8335 14.6009 16.2299 13.796 15.7604 13.1252C14.7542 13.9301 14.0164 14.6009 12.8762 15.4728C13.8823 16.2777 14.6872 16.8143 15.425 17.3509C14.8213 18.7595 14.3518 19.8997 13.8152 21.1742C12.8091 21.1742 11.87 21.1742 10.931 21.1742C10.931 22.3144 10.931 23.2535 10.931 24.3267C12.0042 24.3267 13.0103 24.3267 13.8823 24.3267C15.0225 26.4731 16.2299 28.5524 13.3457 29.9609C14.1506 30.8329 14.8213 31.5707 15.4921 32.3085C16.297 31.5036 17.0348 30.8329 17.7726 30.1622C18.9799 30.6317 20.1202 31.1012 21.3946 31.6378C21.3946 32.5768 21.3946 33.583 21.3946 34.6562C21.9983 34.6562 22.5349 34.7232 23.0715 34.7232C23.541 34.7232 24.0105 34.6562 24.5471 34.6562C24.5471 33.583 24.5471 32.6439 24.5471 31.7049C27.9009 30.2292 27.9009 30.2292 30.3155 32.1744C30.9192 31.5707 31.59 30.9 32.529 30.0951Z" fill="#B2B2B2"/>
<path d="M17.2361 2.46043C16.9678 2.12505 16.6324 1.92384 16.5653 1.65554C16.4982 1.2531 16.4312 0.582335 16.6324 0.381111C16.9678 0.112813 17.6385 -0.0213283 17.9739 0.179895C19.2483 0.98479 20.4556 1.85676 21.73 2.7958C20.9252 3.93607 20.2544 5.00927 19.4495 5.94831C19.0471 6.41783 18.3092 6.55198 17.7056 6.88735C17.5044 6.28368 17.3031 5.68001 16.9678 4.87511C16.9007 4.87511 16.4312 4.94219 16.0287 5.14341C9.4554 7.82639 5.56509 12.7228 4.15653 19.6315C4.08945 19.9669 4.15651 20.4364 3.95529 20.7047C3.61992 21.1072 3.21748 21.3755 2.81504 21.7108C2.47966 21.3084 1.94305 20.8389 1.94305 20.4364C2.01013 19.2962 2.21135 18.1559 2.54672 17.0827C4.82726 9.70449 9.72372 5.00926 17.2361 2.46043Z" fill="#B2B2B2"/>
<path d="M43.1268 17.1497C43.328 16.9485 43.4622 16.7473 43.6634 16.7473C44.2 16.6802 44.7366 16.6131 45.3403 16.6131C45.3403 17.1497 45.5415 17.7534 45.2732 18.1558C44.5354 19.3632 43.6634 20.4364 42.7914 21.7108C41.7182 20.973 40.6451 20.3022 39.706 19.4973C39.2365 19.0949 39.0353 18.3571 38.6999 17.8205C39.3036 17.5522 39.9743 17.3509 40.7792 17.0156C40.1755 14.9363 39.0353 12.857 37.5596 11.0459C34.5413 7.35684 30.651 5.0763 25.9557 4.27141C25.6874 4.20433 25.3521 4.2714 25.2179 4.13725C24.7484 3.7348 24.413 3.26528 24.0106 2.86284C24.5472 2.59454 25.1508 2.05794 25.6204 2.12501C27.0289 2.25916 28.4375 2.59453 29.7119 3.06405C36.0169 5.27751 40.3768 9.57029 42.7244 15.8753C42.7915 16.2107 42.9256 16.6131 43.1268 17.1497Z" fill="#B2B2B2"/>
<path d="M28.1692 43.3758C28.4375 43.4429 28.8399 43.5099 28.907 43.6441C29.0411 44.1136 29.1082 44.6502 29.1753 45.1868C28.6387 45.1868 27.9009 45.4551 27.4984 45.2539C26.2911 44.5832 25.2179 43.6441 23.9435 42.7721C24.7484 41.6989 25.352 40.6257 26.1569 39.6867C26.5594 39.2172 27.2972 39.016 27.8338 38.6806C28.1021 39.2843 28.3704 39.8208 28.7058 40.6257C30.9863 40.0221 33.1998 38.6806 35.1449 37.0037C38.5657 33.9854 40.7121 30.1621 41.4499 25.601C41.517 25.1315 41.6512 24.5278 41.9195 24.1925C42.1207 23.9912 42.8585 23.8571 42.9927 23.9913C43.328 24.3937 43.5963 24.9303 43.5963 25.3998C43.0597 30.3633 40.8463 34.522 37.2913 38.0098C34.8096 40.4245 31.7912 42.0343 28.1692 43.3758Z" fill="#B2B2B2"/>
<path d="M4.96139 28.6195C7.17485 34.9245 11.6018 39.1502 18.2422 41.0283C18.9129 41.2296 19.5837 41.2966 20.2544 41.4308C21.0593 41.5649 21.9313 41.6991 21.7971 42.7723C21.663 43.8455 20.6569 43.7113 19.919 43.5772C15.7604 42.9735 12.1384 41.2966 8.98587 38.5466C5.90044 35.8636 3.82112 32.5099 2.61378 28.4854C2.34548 28.6866 2.14426 28.9549 1.87596 29.022C1.40644 29.0891 0.668616 29.2232 0.534467 29.022C0.266168 28.6195 0.199106 27.8817 0.40033 27.5463C1.13815 26.339 2.01011 25.1987 2.94915 23.9243C4.02235 24.6621 5.16262 25.3329 6.10167 26.2048C6.57119 26.6073 6.70533 27.3451 7.04071 27.9488C6.43704 28.0829 5.83336 28.2842 4.96139 28.6195Z" fill="#B2B2B2"/>
<path d="M22.9374 29.1561C19.3154 29.1561 16.4312 26.3389 16.4312 22.7169C16.4312 19.229 19.3154 16.3448 22.8032 16.2777C26.3582 16.2107 29.3095 19.1619 29.3095 22.7169C29.3095 26.2718 26.4253 29.1561 22.9374 29.1561ZM27.096 22.784C27.096 20.4364 25.0838 18.4912 22.8032 18.4912C20.5227 18.5583 18.6446 20.4364 18.5775 22.7169C18.5105 25.0645 20.4556 27.0097 22.8032 27.0097C25.2179 27.0097 27.096 25.1316 27.096 22.784Z" fill="#B2B2B2"/>
</svg>
